<?xml version="1.0" encoding="UTF-8" standalone="no"?>
<!DOCTYPE svg PUBLIC "-//W3C//DTD SVG 1.1//EN"
 "http://www.w3.org/Graphics/SVG/1.1/DTD/svg11.dtd">
<!-- Generated by graphviz version 12.2.1 (20241206.2353)
 -->
<!-- Title: DFA2 Pages: 1 -->
<svg width="552pt" height="201pt"
 viewBox="0.00 0.00 552.28 201.38" xmlns="http://www.w3.org/2000/svg" xmlns:xlink="http://www.w3.org/1999/xlink">
<g id="graph0" class="graph" transform="scale(1 1) rotate(0) translate(4 197.38)">
<title>DFA2</title>
<polygon fill="white" stroke="none" points="-4,4 -4,-197.38 548.28,-197.38 548.28,4 -4,4"/>
<!-- &#45; -->
<g id="node1" class="node">
<title>&#45;</title>
<ellipse fill="#0000ff" fill-opacity="0.643137" stroke="black" cx="18" cy="-96.69" rx="18" ry="18"/>
<text text-anchor="middle" x="18" y="-91.64" font-family="Times New Roman,serif" font-size="14.00">&#45;</text>
</g>
<!-- q1 -->
<g id="node2" class="node">
<title>q1</title>
<ellipse fill="white" stroke="black" cx="128.13" cy="-96.69" rx="20.13" ry="20.13"/>
<text text-anchor="middle" x="128.13" y="-91.64" font-family="Times New Roman,serif" font-size="14.00">q1</text>
</g>
<!-- &#45;&#45;&gt;q1 -->
<g id="edge1" class="edge">
<title>&#45;&#45;&gt;q1</title>
<path fill="none" stroke="black" d="M36.19,-96.69C52.48,-96.69 76.74,-96.69 96.25,-96.69"/>
<polygon fill="black" stroke="black" points="96.16,-100.19 106.16,-96.69 96.16,-93.19 96.16,-100.19"/>
<text text-anchor="middle" x="57.97" y="-99.89" font-family="Times New Roman,serif" font-size="14.00">a,b</text>
</g>
<!-- q2 -->
<g id="node3" class="node">
<title>q2</title>
<ellipse fill="white" stroke="black" cx="240.39" cy="-96.69" rx="20.13" ry="20.13"/>
<text text-anchor="middle" x="240.39" y="-91.64" font-family="Times New Roman,serif" font-size="14.00">q2</text>
</g>
<!-- q1&#45;&gt;q2 -->
<g id="edge2" class="edge">
<title>q1&#45;&gt;q2</title>
<path fill="none" stroke="black" d="M148.72,-96.69C165.5,-96.69 189.46,-96.69 208.69,-96.69"/>
<polygon fill="black" stroke="black" points="208.42,-100.19 218.42,-96.69 208.42,-93.19 208.42,-100.19"/>
<text text-anchor="middle" x="170.45" y="-99.89" font-family="Times New Roman,serif" font-size="14.00">a,b</text>
</g>
<!-- q3 -->
<g id="node4" class="node">
<title>q3</title>
<ellipse fill="white" stroke="black" cx="332.52" cy="-96.69" rx="20.13" ry="20.13"/>
<text text-anchor="middle" x="332.52" y="-91.64" font-family="Times New Roman,serif" font-size="14.00">q3</text>
</g>
<!-- q2&#45;&gt;q3 -->
<g id="edge3" class="edge">
<title>q2&#45;&gt;q3</title>
<path fill="none" stroke="black" d="M260.84,-96.69C272.53,-96.69 287.45,-96.69 300.64,-96.69"/>
<polygon fill="black" stroke="black" points="300.62,-100.19 310.62,-96.69 300.62,-93.19 300.62,-100.19"/>
<text text-anchor="middle" x="272.49" y="-99.89" font-family="Times New Roman,serif" font-size="14.00">a,b</text>
</g>
<!-- q4 -->
<g id="node5" class="node">
<title>q4</title>
<ellipse fill="white" stroke="black" cx="409.09" cy="-173.25" rx="20.13" ry="20.13"/>
<text text-anchor="middle" x="409.09" y="-168.2" font-family="Times New Roman,serif" font-size="14.00">q4</text>
</g>
<!-- q3&#45;&gt;q4 -->
<g id="edge4" class="edge">
<title>q3&#45;&gt;q4</title>
<path fill="none" stroke="black" d="M346.93,-111.09C358.15,-122.32 373.95,-138.11 386.8,-150.97"/>
<polygon fill="black" stroke="black" points="384.13,-153.25 393.68,-157.85 389.08,-148.3 384.13,-153.25"/>
<text text-anchor="middle" x="363.86" y="-134.23" font-family="Times New Roman,serif" font-size="14.00">a</text>
</g>
<!-- q5 -->
<g id="node6" class="node">
<title>q5</title>
<ellipse fill="white" stroke="black" cx="409.09" cy="-20.13" rx="20.13" ry="20.13"/>
<text text-anchor="middle" x="409.09" y="-15.08" font-family="Times New Roman,serif" font-size="14.00">q5</text>
</g>
<!-- q3&#45;&gt;q5 -->
<g id="edge5" class="edge">
<title>q3&#45;&gt;q5</title>
<path fill="none" stroke="black" d="M346.93,-82.29C358.15,-71.06 373.95,-55.27 386.8,-42.41"/>
<polygon fill="black" stroke="black" points="389.08,-45.08 393.68,-35.54 384.13,-40.13 389.08,-45.08"/>
<text text-anchor="middle" x="363.49" y="-65.55" font-family="Times New Roman,serif" font-size="14.00">b</text>
</g>
<!-- q4&#45;&gt;q5 -->
<g id="edge7" class="edge">
<title>q4&#45;&gt;q5</title>
<path fill="none" stroke="black" d="M413.82,-153.24C416.19,-127.33 416.47,-81.91 414.65,-51.42"/>
<polygon fill="black" stroke="black" points="418.16,-51.38 413.93,-41.66 411.18,-51.89 418.16,-51.38"/>
<text text-anchor="middle" x="410.86" y="-105.53" font-family="Times New Roman,serif" font-size="14.00">b</text>
</g>
<!-- q6 -->
<g id="node7" class="node">
<title>q6</title>
<ellipse fill="white" stroke="black" cx="485.65" cy="-96.69" rx="20.13" ry="20.13"/>
<ellipse fill="none" stroke="black" cx="485.65" cy="-96.69" rx="24.13" ry="24.13"/>
<text text-anchor="middle" x="485.65" y="-91.64" font-family="Times New Roman,serif" font-size="14.00">q6</text>
</g>
<!-- q4&#45;&gt;q6 -->
<g id="edge6" class="edge">
<title>q4&#45;&gt;q6</title>
<path fill="none" stroke="black" d="M423.49,-158.85C433.83,-148.51 448.06,-134.28 460.29,-122.05"/>
<polygon fill="black" stroke="black" points="462.7,-124.59 467.29,-115.05 457.75,-119.64 462.7,-124.59"/>
<text text-anchor="middle" x="438.89" y="-143.65" font-family="Times New Roman,serif" font-size="14.00">a</text>
</g>
<!-- q5&#45;&gt;q4 -->
<g id="edge8" class="edge">
<title>q5&#45;&gt;q4</title>
<path fill="none" stroke="black" d="M404.35,-40.15C401.98,-66.06 401.7,-111.48 403.52,-141.96"/>
<polygon fill="black" stroke="black" points="400.01,-142.01 404.24,-151.72 406.99,-141.49 400.01,-142.01"/>
<text text-anchor="middle" x="400.94" y="-94.26" font-family="Times New Roman,serif" font-size="14.00">a</text>
</g>
<!-- q5&#45;&gt;q6 -->
<g id="edge9" class="edge">
<title>q5&#45;&gt;q6</title>
<path fill="none" stroke="black" d="M423.49,-34.53C433.83,-44.88 448.06,-59.1 460.29,-71.33"/>
<polygon fill="black" stroke="black" points="457.75,-73.74 467.29,-78.34 462.7,-68.79 457.75,-73.74"/>
<text text-anchor="middle" x="438.51" y="-56.13" font-family="Times New Roman,serif" font-size="14.00">b</text>
</g>
<!-- q6&#45;&gt;q6 -->
<g id="edge10" class="edge">
<title>q6&#45;&gt;q6</title>
<path fill="none" stroke="black" d="M509.04,-103.36C519.14,-103.91 527.78,-101.68 527.78,-96.69 527.78,-93.81 524.89,-91.85 520.5,-90.81"/>
<polygon fill="black" stroke="black" points="520.77,-87.32 510.55,-90.13 520.29,-94.3 520.77,-87.32"/>
<text text-anchor="middle" x="536.03" y="-91.64" font-family="Times New Roman,serif" font-size="14.00">a,b</text>
</g>
</g>
</svg>
